<svg xmlns="http://www.w3.org/2000/svg" width="300" height="300" viewBox="0 0 300 300" fill="none">
    <polygon points="16,68 150,2 283,68 283,231 150,298 16,231" style="fill:lightgray;" />
    <g style="stroke:black;stroke-width:2">
        <line x1="150" y1="298" x2="16" y2="231" />
        <line x1="16" y1="231" x2="16" y2="68" />
        <line x1="16" y1="68" x2="150" y2="2" />
        <line x1="150" y1="298" x2="283" y2="231" />
        <line x1="283" y1="231" x2="283" y2="68" />
        <line x1="283" y1="68" x2="150" y2="2" />
        <line x1="16" y1="68" x2="150" y2="135" />
        <line x1="150" y1="135" x2="283" y2="68" />
        <line x1="150" y1="135" x2="150" y2="298" />
        <line x1="88" y1="34" x2="220" y2="100" />
        <line x1="80" y1="100" x2="146" y2="62" />
        <line x1="16" y1="145" x2="150" y2="213" />
        <line x1="80" y1="177" x2="78" y2="262" />
        <line x1="150" y1="213" x2="283" y2="146" />
        <line x1="220" y1="177" x2="220" y2="263" />
    </g>
</svg>
